<?xml version="1.0" encoding="utf-8"?>
<!-- Generator: Adobe Illustrator 16.0.3, SVG Export Plug-In . SVG Version: 6.00 Build 0)  -->
<!DOCTYPE svg PUBLIC "-//W3C//DTD SVG 1.1//EN" "http://www.w3.org/Graphics/SVG/1.1/DTD/svg11.dtd">
<svg version="1.1" xmlns="http://www.w3.org/2000/svg" xmlns:xlink="http://www.w3.org/1999/xlink" x="0px" y="0px" width="500px"
	 height="500px" viewBox="0 0 500 500" enable-background="new 0 0 500 500" xml:space="preserve">
<g id="BACKGROUND">
	<rect opacity="0" fill="none" width="500" height="500"/>
</g>
<g id="OBJECTS">
	<g>
		<g>
			<path opacity="0" fill="#FFE0D1" d="M425.865,317.478c-10.313,7.432-14.459,22.461-9.065,33.97
				c5.395,11.51,19.944,17.935,31.967,13.809c10.988-3.771,18.416-15.596,17.687-27.189
				C465.108,316.693,443.403,304.84,425.865,317.478z"/>
			<g opacity="0">
				<path fill="#FFE0D1" d="M105.908,351.845c-1.323,9.115-6.761,17.004-11.435,24.942c-8.208,13.942-13.959,31.453-12.274,46.966
					h326.976c3.912-8.374,4.965-17.919,1.457-28.276c-4.225-12.473-13.539-22.696-17.969-35.097
					c-5.181-14.501-2.925-31.446,5.869-44.087c5.298-7.614,12.641-13.538,18.789-20.484c17.32-19.568,22.323-53.985,1.444-69.701
					c-8.799-6.623-19.294-8.931-29.375-12.665c-14.794-5.479-18.512-12.97-25.255-26.849c-9.951-20.481-28.79-36.449-50.624-42.91
					c-21.834-6.461-46.329-3.316-65.823,8.452c-12.93,7.806-23.44,18.991-35.493,28.092c-36.641,27.667-80.125,2.045-117.352,22.371
					c-30.739,16.783-36.732,62.41-17.917,91.947C88.746,313.103,109.068,330.07,105.908,351.845z"/>
				<path fill="#FFE0D1" d="M158.491,133.118c-10.085,5.182-18.681,14.506-20.162,25.748c-0.478,3.628-0.165,7.484,1.669,10.65
					c1.676,2.895,4.481,4.98,7.458,6.505c8.506,4.355,18.608,4.604,28.005,2.869c13.606-2.513,26.875-9.437,34.551-20.95
					c5.142-7.712,7.008-19.187,0.266-25.548C196.847,119.715,172.997,125.662,158.491,133.118z"/>
				<g>
					<path fill="#FFFFFF" d="M309.581,140.386h120.341c1.8-3.263,3.126-6.968,3.292-10.69c0.166-3.723-1.902-7.83-5.525-8.704
						c-2.121-0.512-4.323,0.14-6.493,0.369c-2.169,0.229-4.715-0.163-5.856-2.022c-0.584-0.951-0.682-2.109-0.947-3.193
						c-0.814-3.33-3.431-6.16-6.687-7.232s-7.042-0.352-9.676,1.842c-1.482,1.235-2.825,2.991-4.752,3.084
						c-1.791,0.086-3.254-1.321-4.557-2.552c-7.318-6.917-17.034-11.246-27.07-12.063c-6.255-0.509-12.842,0.402-18.06,3.889
						c-5.218,3.487-8.734,9.913-7.569,16.079c0.332,1.756,0.857,3.966-0.591,5.013c-0.555,0.401-1.27,0.493-1.952,0.54
						c-3.751,0.258-7.559-0.442-11.26,0.22C315.236,126.216,309.714,133.295,309.581,140.386z"/>
					<path fill="#FFFFFF" d="M218.072,213.428H97.73c-1.799-3.264-3.126-6.968-3.292-10.691s1.903-7.829,5.525-8.704
						c2.121-0.512,4.323,0.14,6.493,0.369s4.715-0.163,5.856-2.022c0.584-0.951,0.682-2.109,0.947-3.193
						c0.814-3.33,3.431-6.16,6.687-7.232c3.256-1.072,7.042-0.351,9.676,1.843c1.482,1.235,2.825,2.991,4.752,3.083
						c1.791,0.086,3.254-1.32,4.557-2.552c7.318-6.917,17.034-11.246,27.07-12.063c6.255-0.51,12.842,0.402,18.06,3.889
						c5.218,3.487,8.734,9.913,7.568,16.08c-0.332,1.756-0.857,3.966,0.591,5.013c0.555,0.401,1.27,0.492,1.953,0.54
						c3.75,0.258,7.559-0.443,11.26,0.22C212.416,199.258,217.938,206.337,218.072,213.428z"/>
					<path fill="#FFFFFF" d="M235.978,113.32c3.034-2.307,5.896-5.695,5.833-9.825c-0.048-3.15-1.843-5.971-4.031-7.897
						c-5.319-4.684-13.371-4.805-18.797-0.282c-1.97,1.643-5.647,6.575-8.445,5.417c-2.084-0.864-2.167-4.084-2.75-6.523
						c-0.947-3.966-4.121-6.888-7.588-8.019s-7.187-0.709-10.701,0.216c-4.024,1.059-7.539,3.838-11.4,4.98
						c-3.594,1.063-2.827,1.883-5.071-2.205c-1.051-1.914-2.942-3.031-4.85-3.639c-7.919-2.525-16.233,2.412-22.401,8.609
						c-1.941,1.95-3.848,4.094-6.278,5.104c-6.476,2.693-13.953,0.293-20.808,3.112c-4.889,2.01-12.361,5.246-14.848,10.953H235.978
						z"/>
					<path fill="#FFFFFF" d="M406.103,226.406c2.768-2.104,5.378-5.195,5.321-8.963c-0.044-2.874-1.682-5.447-3.677-7.205
						c-4.853-4.273-12.198-4.384-17.148-0.257c-1.797,1.498-5.152,5.999-7.704,4.941c-1.901-0.788-1.977-3.726-2.508-5.951
						c-0.864-3.618-3.76-6.284-6.922-7.315c-3.163-1.031-6.556-0.647-9.762,0.197c-3.671,0.966-6.877,3.501-10.4,4.543
						c-3.279,0.969-2.579,1.717-4.626-2.012c-0.958-1.746-2.684-2.765-4.424-3.32c-7.224-2.303-14.809,2.2-20.436,7.854
						c-1.771,1.779-3.51,3.735-5.728,4.657c-5.908,2.456-12.729,0.267-18.982,2.838c-4.46,1.834-11.276,4.786-13.545,9.992H406.103z
						"/>
				</g>
			</g>
		</g>
		<ellipse fill="none" cx="257.966" cy="416.188" rx="212.45" ry="15.505"/>
		<g>
			<path fill="#C9613A" d="M275.474,208.556c-0.032,3.585,0.866,7.581-1.269,10.461c-1.306,1.761-3.452,2.634-5.375,3.688
				c-2.299,1.261-4.454,2.944-5.735,5.231c-1.281,2.288-1.547,5.259-0.192,7.503c1.18,1.955,3.521,3.427,3.534,5.709
				c0.009,1.591-1.167,2.923-1.63,4.446c-0.971,3.202,1.42,6.535,4.275,8.28c2.855,1.743,6.222,2.51,9.083,4.243
				c3.646,2.21,6.29,5.879,10.094,7.805c5.148,2.606,11.385,1.521,16.829-0.395c5.443-1.915,10.719-4.623,16.463-5.169
				c3.187-0.304,6.553,0.046,9.447-1.323c3.364-1.592,5.396-5.398,5.328-9.119c-0.067-3.721-2.03-7.258-4.835-9.703
				c-2.156-1.879-4.911-3.33-6.046-5.955c-1.507-3.485,0.464-7.4,0.847-11.178c0.407-4.011-1.138-8.174-4.061-10.95
				c-2.167-2.057-5.012-3.37-6.902-5.684c-1.573-1.925-2.344-4.377-3.697-6.462c-2.392-3.686-6.486-6-10.732-7.13
				c-3.508-0.933-7.12-1.106-10.729-1.227c-3.126-0.104-2.485-0.768-4.345,0.168C278.633,195.417,275.522,202.951,275.474,208.556z"
				/>
			<path fill="#FFBCB3" d="M328.544,266.244c0.571,1.896,1.002,3.98,0.255,5.813c-0.78,1.914-2.767,3.165-4.814,3.445
				s-4.134-0.293-5.99-1.205c1.38-2.429,0.873-5.511-0.228-8.078s-2.742-4.893-3.655-7.533c-0.163-0.471-0.303-0.982-0.167-1.463
				c0.229-0.811,1.126-1.208,1.931-1.461c2.628-0.824,6.443-2.157,8.333,0.552C326.205,259.177,327.546,262.937,328.544,266.244z"/>
			<path fill="#FFBCB3" d="M275.415,415.47c-0.558,0.534-1.251,0.898-1.935,1.255c-2.66,1.389-5.319,2.777-7.979,4.166
				c-0.691,0.361-1.494,0.928-1.371,1.697c0.101,0.627,0.771,0.973,1.373,1.175c3.254,1.095,6.816,0.869,10.175,0.157
				c2.173-0.46,4.36-1.146,6.107-2.518c1.748-1.372,2.994-3.545,2.766-5.755c-0.096-0.929-0.478-1.869-1.224-2.431
				c-0.789-0.594-1.848-0.676-2.833-0.616c-1.097,0.067-2.537,0.199-3.517,0.746C276.169,413.796,276.078,414.835,275.415,415.47z"
				/>
			<polygon fill="#FFBCB3" points="286.115,406.25 285.54,417.103 275.674,416.32 276.229,403.619 			"/>
			<polygon fill="#FFBCB3" points="303.937,404.914 303.42,420.768 314.766,422.224 313.292,415.768 312.381,403.989 			"/>
			<g>
				<g>
					<path fill="#8465B5" d="M314.93,297.072c0,0,2.747,7.684,2.715,13.812c-0.014,2.627-0.842,12.792-1.03,15.415
						c-3.26,45.365-2.182,80.629-2.182,80.629s-2.043,0.949-5.817,0.947c-3.969-0.002-6.684-1.182-6.684-1.182l-3.11-91.619
						l-2.383-0.128l-8.821,92.254c0,0-3.264,1.023-6.561,0.447c-3.495-0.609-5.919-1.15-5.919-1.15l4.658-107.558L314.93,297.072z"
						/>
				</g>
			</g>
			<g>
				<path fill="#FFBCB3" d="M302.41,227.814v-11.92h-12.602v11.92c0,3.198,0.605,5.79-2.592,5.79c-3.146,0-8.988,2.592-8.988,5.79
					v10.796h35.761v-10.796c0-3.198-2.592-5.79-5.79-5.79h-3.198C301.804,233.604,302.41,231.012,302.41,227.814z"/>
				<path fill="#EB9C92" d="M289.808,227.819c4.581,6.162,8.004,6.213,12.602-0.046v-8.667h-12.602V227.819z"/>
			</g>
			<g>
				<g>
					<path fill="#F5B0A7" d="M314.186,214.808c-1.131,2.738-3.405,4.086-4.757,3.944c-1.075-0.112-1.52-2.121-1.128-4.36
						c0.392-2.24,1.577-3.89,3.278-4.519C313.315,209.231,315.793,210.917,314.186,214.808z"/>
					<path fill="#F5B0A7" d="M277.964,214.808c1.131,2.738,3.405,4.086,4.756,3.944c1.075-0.112,1.52-2.121,1.128-4.36
						c-0.392-2.24-1.577-3.89-3.278-4.519C278.835,209.231,276.357,210.917,277.964,214.808z"/>
					<path fill="#FFBCB3" d="M296.075,189.783c-10.145,0-16.167,5.315-15.851,19.007c0.321,13.871,11.835,22.018,15.851,22.018
						c4.015,0,15.529-8.147,15.85-22.018C312.242,195.098,306.219,189.783,296.075,189.783z"/>
				</g>
				<circle fill="#3A4147" cx="289.644" cy="214.965" r="1.708"/>
				<circle fill="#3A4147" cx="302.188" cy="214.965" r="1.708"/>
				<path fill="#EC8D82" d="M297.125,220.128c0,1.398-0.542,1.838-1.209,1.838c-0.668,0-1.21-0.44-1.21-1.838
					s0.701-3.455,1.21-3.455C296.314,216.673,297.125,218.73,297.125,220.128z"/>
				<g>
					<g>
						<path fill="#EC8D82" d="M293.05,224.677c-0.174-0.119-0.22-0.356-0.101-0.531c0.118-0.174,0.355-0.22,0.53-0.102
							c1.859,1.262,4.398,0.776,5.661-1.083c0.118-0.174,0.356-0.22,0.53-0.102c0.175,0.119,0.22,0.356,0.102,0.531
							C298.273,225.599,295.258,226.176,293.05,224.677z"/>
					</g>
				</g>
				<g>
					<path fill="#C9613A" d="M304.551,212.065c-0.97-1.156-3.207-1.216-4.307-0.296c-0.489,0.409-1.197-0.292-0.705-0.705
						c1.499-1.254,4.373-1.306,5.717,0.296C305.666,211.849,304.964,212.557,304.551,212.065L304.551,212.065z"/>
				</g>
				<g>
					<g>
						<path fill="#C9613A" d="M287.28,212.065c0.97-1.156,3.208-1.216,4.307-0.296c0.489,0.409,1.197-0.292,0.705-0.705
							c-1.499-1.254-4.372-1.306-5.716,0.296C286.166,211.849,286.867,212.557,287.28,212.065L287.28,212.065z"/>
					</g>
				</g>
			</g>
			<g>
				<ellipse fill="#EC8D82" cx="287.943" cy="219.019" rx="2.41" ry="1.19"/>
				<ellipse fill="#EC8D82" cx="303.869" cy="219.019" rx="2.41" ry="1.19"/>
			</g>
			<path fill="#FB5B5B" d="M313.532,269.372c1-9.166,2.837-6.396,2.713-14.635c-0.122-8.056-3.694-6.677-2.248-14.097
				c0.66-3.386-1.681-6.322-3.489-6.734c-2.825-0.643-4.504-0.735-4.504-0.735s-1.783,9.024-9.08,9.024
				c-8.385,0-9.331-9.024-9.331-9.024s-3.479,0.092-6.305,0.735c-1.808,0.412-4.149,3.348-3.489,6.734
				c1.447,7.42-0.984,5.744-1.106,13.8c-0.125,8.239,2.713,9.959,3.713,19.125c0.837,7.676-3.296,33.888-7.321,46.673
				c9.205,10.646,40.521,5.583,48.458-1.626C318.664,305.967,312.695,277.048,313.532,269.372z"/>
			<g>
				<g>
					<path fill="#D6608E" d="M302.285,273.913c0,0,0.274-0.293,0.712-0.696C302.556,273.657,302.285,273.913,302.285,273.913z"/>
				</g>
			</g>
			<path fill="#FFBCB3" d="M268.897,247.321c0,0-9.48,16.279-9.105,21.18c0.738,9.642,30.525,3.624,30.525,3.624l-1.033-4.847
				c0,0-18.469-1.102-18.675-1.765c-0.24-0.774,6.268-13.176,6.268-13.176L268.897,247.321z"/>
			<path fill="#FB5B5B" d="M283.584,233.544c0,0-8.358,0.583-12.129,5.684c-2.684,3.63-9.452,17.837-9.452,17.837
				s1.403,2.11,4.502,3.968c2.969,1.779,6.618,1.89,6.684,1.787c0.596-0.926,5.234-11.484,6.322-16.339
				C280.974,239.951,283.584,233.544,283.584,233.544z"/>
			<path fill="#FB5B5B" d="M307.148,233.544c0,0,8.359,0.583,12.129,5.684c2.684,3.63,8.866,14.948,8.866,14.948
				s-1.403,2.109-4.502,3.967c-2.969,1.779-8.271,2.53-8.337,2.428c-0.597-0.926-2.995-9.234-4.083-14.089
				C309.758,239.951,307.148,233.544,307.148,233.544z"/>
			<g>
				<path fill="#404042" d="M292.324,250.19h7.049c0.76,0,1.376,0.616,1.376,1.376v18.037c0,0.76-0.616,1.376-1.376,1.376h-7.049
					c-0.76,0-1.376-0.616-1.376-1.376v-18.037C290.947,250.806,291.563,250.19,292.324,250.19z"/>
				<circle fill="#FFFFFF" cx="295.848" cy="253.308" r="0.714"/>
				<circle fill="#FFFFFF" cx="295.848" cy="254.646" r="0.436"/>
			</g>
			<path fill="#FFBCB3" d="M290.947,261.248c0,0-0.135,2.271,0,3.33c0.134,1.05,1.823,2.175,5.401,0.925
				c1.046-0.365,2.668-0.856,3.763-1.026c0.846-0.132,1.782,2.642,1,4.88c-0.626,1.791-0.965,2.209-5.429,2.929
				c-1.952,0.315-6.197,1.434-7.961,0.54c-1.878-0.951-2.468-4.424-0.267-6.455C290.036,263.987,289.553,261.368,290.947,261.248z"
				/>
			<path fill="#C9613A" d="M283.607,221.245c-0.911-4.403-0.945-6.828,0.382-9.509c0.951-1.92,3.441-3.524,5.356-4.483
				s3.848-2.026,5.211-3.679c-0.639,1.762-2.046,12.017,6.459-0.347c-2.031,10.733,4.365,3.823,5.264,0.74
				c2.154,11.037,2.012,12.028,2.836,16.242c6.47-6.408,8.833-31.097-13.2-31.097C272.92,189.112,276.716,219.308,283.607,221.245z"
				/>
			<path fill="#FB5B5B" d="M285.923,415.618c0,0-0.011,0.003-0.032,0.007c-1.914,0.408-3.741,1.172-5.322,2.324
				c-0.787,0.574-1.56,1.174-2.338,1.752c-2.186,1.624-4.601,3.148-7.312,3.395c-1.01,0.092-2.057-0.007-2.975-0.438
				c-0.842-0.396-1.544-1.108-1.857-1.979c-2.187,0.774-4.497,1.644-5.71,3.357c-1.558,2.198-0.095,3.91,1.565,3.91
				c1.66,0,19.29,0,22.167,0S285.923,415.618,285.923,415.618z"/>
			<path fill="#FB5B5B" d="M314.588,419.362c-0.749-1.172-0.965-2.54-1.296-3.595c0.031,0.217,0.06,0.433,0.086,0.647
				c0.146,1.188,0.281,2.452-0.243,3.527c-1.719-0.994-3.873-1.203-5.751-0.559c-0.501,0.172-0.991,0.402-1.518,0.463
				c-0.527,0.062-1.122-0.091-1.414-0.533c-0.268-0.406-0.217-0.935-0.21-1.421c0.01-0.719-0.104-1.439-0.33-2.122
				c-0.076-0.229-0.195-0.447-0.321-0.663c-0.733,1.454-0.63,4.186-1.265,5.862c-1.392,3.68-1.392,6.976,1.79,6.976
				c5.667,0,8.882,0,11.268,0C319.692,427.945,316.937,423.039,314.588,419.362z"/>
			<path fill="#FFBCB3" d="M300.367,264.011c-1.359,0.15-2.664-0.788-3.309-1.994c-0.646-1.205-0.75-2.624-0.721-3.99
				c0.016-0.793,0.088-1.631,0.551-2.273c0.567-0.787,1.54-1.301,2.475-1.559c-0.588-0.033-1.203-0.075-1.704-0.386
				c-0.5-0.31-0.83-0.981-0.559-1.504c0.275-0.533,0.981-0.646,1.582-0.644c1.081,0.005,2.251,0.22,2.979,1.02
				c0.554,0.608,0.757,1.45,0.926,2.256c0.189,0.906,0.361,1.816,0.514,2.729c0.257,1.534,1.385,2.759,2.88,3.186
				c5.564,1.588,10.987,3.591,16.372,5.73c1.023,0.407,2.055,0.831,2.936,1.491c0.881,0.66,1.609,1.592,1.8,2.676
				c0.277,1.572-0.669,3.197-2.042,4.012c-1.373,0.815-3.079,0.915-4.643,0.598c-1.564-0.316-3.022-1.017-4.451-1.728
				C310.467,270.901,305.569,267.248,300.367,264.011z"/>
		</g>
		<g>
			<polygon fill="#FFBCB3" points="212.433,406.25 213.008,417.103 223.411,415.618 221.684,404.085 			"/>
			<path fill="#A86138" d="M223.411,414.583c1.573,1.705,3.938,3.814,5.755,4.78c2.606,1.386,7.123,2.016,9.004,4.672
				c1.558,2.198,0.095,3.91-1.565,3.91c-1.66,0-19.29,0-22.167,0s-1.813-12.327-1.813-12.327S219.176,417.103,223.411,414.583z"/>
			<polygon fill="#FFBCB3" points="194.611,404.914 194.574,420.951 188.375,422.224 185.844,418.046 186.76,404.825 			"/>
			<path fill="#A86138" d="M194.432,427.945c-5.667,0-8.882,0-11.269,0c-4.308,0-1.553-4.906,0.795-8.582
				c1.193-1.868,1.034-4.234,2.143-5.036c1.716-1.242,6.983-1.28,8.472,0.227c1.164,1.179,0.919,4.492,1.648,6.416
				C197.613,424.649,197.613,427.945,194.432,427.945z"/>
			<g>
				<path fill="#2A76BA" d="M183.595,299.692c0,0-1.85,5.57-1.819,11.698c0.014,2.628,0.741,12.283,0.86,14.91
					c1.434,31.539,1.478,80.335,1.478,80.335s2.043,0.949,5.817,0.947c3.969-0.002,6.684-1.183,6.684-1.183l3.135-92.037
					l2.265-0.396l8.915,93.233c0,0,3.264,1.023,6.561,0.447c3.495-0.609,5.919-1.15,5.919-1.15l-4.658-107.558L183.595,299.692z"/>
			</g>
			<path fill="#164974" d="M215.68,226.747c0,0,5.276-0.078,8.466,3.568c3.452,3.945,8.737,21.695,8.737,21.695
				s1.394,1.305-2.224,3.431c-3.465,2.036-7.548,2.123-7.681,2.17c-0.272,0.097-6.021-8.087-6.623-15.834
				C215.753,234.028,215.68,226.747,215.68,226.747z"/>
			<path fill="#164974" d="M228.161,274.263c2.771,0.92,6.186,1.098,8.252-0.964c2.035-2.03,1.911-5.33,1.399-8.157
				c-1.822-10.065-5.179-15.418-9.963-26.595c-2.408,1.492-2.972,6.939-2.959,9.772c0.025,5.316-0.531,10.635-1.653,15.831
				c-0.396,1.833,0.516,0.086-0.731,1.518C221.149,267.226,224.939,273.192,228.161,274.263z"/>
			<path fill="#0D3759" d="M234.514,266.058c-1.027-3.129-2.073-6.268-3.536-9.18c-1.463-2.911-3.373-5.609-5.856-7.509
				c-0.095,1.635-0.19,3.27-0.286,4.904c-0.087,1.492-0.197,1.939,0.92,2.766c2.132,1.578,4.108,3.459,5.908,5.473
				C232.571,263.527,233.931,264.775,234.514,266.058z"/>
			<path fill="#FFBCB3" d="M208.6,221.393v-12.207h-12.904v12.207c0,3.275-2.655,5.93-5.929,5.93l0,0
				c-3.275,0-5.929,2.654-5.929,5.929v11.057h36.621v-11.057c0-3.274-2.654-5.929-5.929-5.929h0
				C211.254,227.322,208.6,224.667,208.6,221.393z"/>
			<path fill="#EB9C92" d="M208.977,223.466c0,0-0.001-0.009-0.001-0.011c-0.239-0.643-0.376-1.336-0.376-2.063v-2.545v-8.315
				h-12.904c0,0,0,6.016,0,8.17C200.589,225.771,207.797,226.154,208.977,223.466z"/>
			<path fill="#164974" d="M216.047,226.747h-4.058c0,0-4.575,5.214-9.876,5.214c-5.72,0-9.876-5.214-9.876-5.214h-6.998
				c-4.144,0-5.379,5.879-4.896,9.995c0,0,1.708,27.593,2.56,36.305c0.422,4.325-0.553,27.643-0.553,27.643
				s11.29,1.646,18.278,1.646c7.204,0,18.171-1.646,18.171-1.646s-0.839-23.317-0.416-27.643c0.852-8.712,4.541-38.568,4.541-38.568
				C223.407,230.362,220.191,226.747,216.047,226.747z"/>
			<path fill="#FFBCB3" d="M183.587,308.496c0.123,0.175,0.262,0.354,0.461,0.428c0.151,0.056,0.318,0.043,0.479,0.025
				c3.153-0.353,6.053-2.456,7.367-5.344c-1.558-0.918-2.976-2.075-4.188-3.417c-0.247-0.273-0.518-0.572-0.882-0.62
				c-0.209-0.027-0.418,0.034-0.62,0.095c-1.527,0.458-4.032,1.19-4.659,2.894C180.92,304.257,182.627,307.135,183.587,308.496z"/>
			<path fill="#164974" d="M185.791,226.747c-3.942-0.219-7.297,3.155-9.411,6.182c-2.31,3.308-12.204,33.151-12.203,36.377
				c0,3.396,14.154,29.369,15.552,34.24c4.301,0.025,7.519-1.288,9.317-3.268c-3.979-9.262-13.843-30.052-13.833-31.404
				c0.012-1.497,8.623-20.033,9.609-26.695C185.491,237.669,186.091,231.321,185.791,226.747z"/>
			<g>
				<path fill="#878787" d="M219.073,272.936l-21.231-2.597c-2.312-0.282-3.956-2.385-3.673-4.697l3.924-32.089
					c0.282-2.312,2.386-3.957,4.697-3.674l21.23,2.597c2.312,0.283,3.957,2.385,3.674,4.697l-3.924,32.089
					C223.488,271.573,221.385,273.219,219.073,272.936z"/>
				<circle fill="#E3E3E3" cx="210.932" cy="251.408" r="3.494"/>
				<circle fill="#E3E3E3" cx="201.453" cy="233.409" r="1.351"/>
				<circle fill="#E3E3E3" cx="204.656" cy="233.94" r="0.812"/>
			</g>
			<g>
				<path fill="#113C5E" d="M221.411,196.002c-0.764,6.011-3.352,15.17-7.027,19.988c0.483-1.246,0.535-2.611,0.581-3.947
					c0.185-5.385,0.369-10.775,0.189-16.161c-0.011-0.317-0.02-0.647,0.114-0.935c0.11-0.236,0.307-0.419,0.506-0.589
					c0.777-0.663,1.651-1.212,2.586-1.623C220.625,191.738,221.551,194.892,221.411,196.002z"/>
				<g>
					<g>
						<g>
							<path fill="#FFBCB3" d="M204.611,181.667c-11.166-1.322-18.44,8.281-18.687,17.201c-0.424,15.372,12.91,23.813,20.289,24.844
								c4.517,0.632,9.809-4.342,12.861-23.05C220.851,189.782,215.776,182.99,204.611,181.667z"/>
						</g>
					</g>
					<path fill="#113C5E" d="M214.659,198.139c-0.778,0.226-1.579,0.397-2.354,0.55c1.371-0.964,2.431-2.364,2.987-3.945
						c-3.821,2.402-8.448,3.497-12.94,3.063c2.49-0.922,4.786-2.364,6.698-4.208c-2.893,2.005-6.571,2.024-9.849,2.968
						c-1.607,0.463-3.054,1.324-4.064,2.676c-1.229,1.644-1.647,3.743-2.491,5.593c-0.135-0.457-0.271-0.913-0.406-1.37
						c-0.274-0.926-0.606-2.22-1.491-2.757c-0.747-0.453-2.18-0.405-2.749,0.341c-0.647,0.85-0.817,2.388-0.71,3.411
						c0.115,1.106,0.545,2.166,1.144,3.104c0.772,1.212,2.009,2.312,3.444,2.249c0.145,0,0.766,3.56,3.476,8.814
						c-0.827-0.146-1.671-0.978-1.671-0.978s0.228,0.493-0.436,2.498c-1.055-2.562-2.463-3.928-3.68-6.12
						c-0.112,0.935-0.468,1.84-1.023,2.601c-0.101-3.929-2.627-7.314-4.113-10.953c-2.259-5.535-1.95-11.486,0.746-16.811
						c2.833-5.596,8.284-9.062,14.514-9.44c4.104-0.25,8.291,0.136,12.145,1.57c3.517,1.308,6.927,3.812,8.88,7.054
						c0.985,1.635,1.642,3.726,1.904,5.618c0.144,1.038,0.172,2.091,0.083,3.135c-0.044,0.521-0.119,1.041-0.222,1.554
						c-0.071,0.35-0.417,1.049-0.357,1.382c-0.302-1.691-1.225-3.265-2.555-4.352c-0.082-0.067-0.176-0.136-0.281-0.126
						c-0.1,0.008-0.179,0.085-0.25,0.157C217.684,196.809,216.557,197.588,214.659,198.139z"/>
				</g>
				<path fill="#EC8D82" d="M210.438,212.002c0.681,1.308,0.615,2.057,0.067,2.343c-0.61,0.32-1.786-0.114-2.447-1.433
					c-0.709-1.312-0.311-3.798,0.219-3.99C208.613,208.782,209.703,210.704,210.438,212.002z"/>
				<g>
					<g>
						<path fill="#EC8D82" d="M207.271,217.671c0.215-0.052,0.348-0.268,0.296-0.483c-0.051-0.215-0.268-0.348-0.482-0.296
							c-2.29,0.549-4.6-0.867-5.149-3.157c-0.051-0.215-0.267-0.348-0.482-0.296c-0.215,0.052-0.348,0.268-0.296,0.483
							C201.808,216.642,204.551,218.323,207.271,217.671z"/>
					</g>
				</g>
				<circle fill="#3A4147" cx="201.419" cy="207.125" r="1.791"/>
				<circle fill="#3A4147" cx="214.565" cy="207.098" r="1.791"/>
				<g>
					<path fill="#113C5E" d="M217.036,204.054c-1.019-1.21-3.364-1.268-4.515-0.301c-0.511,0.43-1.256-0.304-0.74-0.737
						c1.568-1.318,4.58-1.379,5.992,0.298C218.204,203.824,217.47,204.569,217.036,204.054L217.036,204.054z"/>
				</g>
				<g>
					<path fill="#113C5E" d="M198.936,204.091c1.014-1.214,3.358-1.281,4.513-0.319c0.513,0.428,1.254-0.309,0.737-0.74
						c-1.574-1.312-4.585-1.36-5.991,0.323C197.767,203.867,198.503,204.608,198.936,204.091L198.936,204.091z"/>
				</g>
			</g>
			<path fill="#164974" d="M221.534,266.469c0,0,1.229,2.693,2.391,4.134c1.162,1.439,4.254-2.726,4.254-2.726l-1.418-3.854
				L221.534,266.469z"/>
			<path fill="#FFBCB3" d="M227.183,252.387c-0.015-0.031-0.032-0.062-0.051-0.092c-0.161-0.258-0.509-0.43-0.777-0.285
				c-0.121,0.064-0.205,0.182-0.276,0.299c-0.721,1.198-0.285,2.968-1.324,3.906c-1.109,1.003-2.722,1.466-4.193,1.221
				c-1.34-0.224-2.758-0.974-3.969-0.358c-0.476,0.242-0.833,0.667-1.119,1.117c-0.36,0.566-0.632,1.197-0.742,1.859
				c-0.319,1.928,0.81,3.894,2.426,4.992s3.63,1.455,5.584,1.489c1.533,0.027,2.537-0.223,3.543-1.421
				c1.338-1.595,2.071-3.667,2.103-5.743c0.033-2.164-0.784-4.089-1.034-6.199C227.322,252.905,227.298,252.627,227.183,252.387z"/>
		</g>
		<g>
			<path fill="#FB5B5B" d="M269.587,208.501c0.349-1.427-0.197-2.478-1.43-3.047c-1.011-0.467-2.451-0.273-3.328,1.116
				c0.087-1.64-0.975-2.631-2.07-2.834c-1.335-0.249-2.388,0.293-2.929,1.659c-0.979,2.471,1.227,6.244,2.798,8.087
				C264.977,212.886,268.957,211.083,269.587,208.501z"/>
			<path fill="#FB5B5B" d="M268.836,188.109c0.646-2.646-0.366-4.593-2.651-5.648c-1.875-0.866-4.542-0.506-6.168,2.068
				c0.162-3.04-1.807-4.876-3.837-5.253c-2.474-0.46-4.426,0.543-5.428,3.075c-1.814,4.58,2.273,11.572,5.187,14.99
				C260.291,196.237,267.668,192.895,268.836,188.109z"/>
			<path fill="#FB5B5B" d="M268.274,158.549c0.646-2.646-0.366-4.593-2.651-5.648c-1.875-0.866-4.542-0.505-6.168,2.068
				c0.161-3.04-1.808-4.876-3.837-5.253c-2.475-0.46-4.426,0.543-5.429,3.075c-1.814,4.58,2.273,11.573,5.187,14.99
				C259.728,166.677,267.106,163.334,268.274,158.549z"/>
		</g>
	</g>
</g>
<g id="DESIGNED_BY_FREEPIK">
</g>
</svg>
